<svg width="36" height="39" viewBox="0 0 36 39" fill="none" xmlns="http://www.w3.org/2000/svg">
<path d="M10.44 0H25.56C31.32 0 36 5.07 36 11.31V27.69C36 30.6896 34.9001 33.5663 32.9422 35.6874C30.9843 37.8084 28.3289 39 25.56 39H10.44C4.68 39 0 33.93 0 27.69V11.31C0 8.3104 1.09993 5.43366 3.05781 3.31262C5.01569 1.19159 7.67114 0 10.44 0ZM10.08 3.9C8.3614 3.9 6.71318 4.63961 5.49795 5.95611C4.28271 7.27262 3.6 9.05818 3.6 10.92V28.08C3.6 31.9605 6.498 35.1 10.08 35.1H25.92C27.6386 35.1 29.2868 34.3604 30.5021 33.0439C31.7173 31.7274 32.4 29.9418 32.4 28.08V10.92C32.4 7.0395 29.502 3.9 25.92 3.9H10.08ZM27.45 6.825C28.0467 6.825 28.619 7.08181 29.041 7.53893C29.4629 7.99605 29.7 8.61604 29.7 9.2625C29.7 9.90897 29.4629 10.529 29.041 10.9861C28.619 11.4432 28.0467 11.7 27.45 11.7C26.8533 11.7 26.281 11.4432 25.859 10.9861C25.437 10.529 25.2 9.90897 25.2 9.2625C25.2 8.61604 25.437 7.99605 25.859 7.53893C26.281 7.08181 26.8533 6.825 27.45 6.825ZM18 9.75C20.3869 9.75 22.6761 10.7772 24.364 12.6057C26.0518 14.4342 27 16.9141 27 19.5C27 22.0859 26.0518 24.5658 24.364 26.3943C22.6761 28.2228 20.3869 29.25 18 29.25C15.6131 29.25 13.3239 28.2228 11.636 26.3943C9.94821 24.5658 9 22.0859 9 19.5C9 16.9141 9.94821 14.4342 11.636 12.6057C13.3239 10.7772 15.6131 9.75 18 9.75ZM18 13.65C16.5678 13.65 15.1943 14.2663 14.1816 15.3634C13.1689 16.4605 12.6 17.9485 12.6 19.5C12.6 21.0515 13.1689 22.5395 14.1816 23.6366C15.1943 24.7337 16.5678 25.35 18 25.35C19.4322 25.35 20.8057 24.7337 21.8184 23.6366C22.8311 22.5395 23.4 21.0515 23.4 19.5C23.4 17.9485 22.8311 16.4605 21.8184 15.3634C20.8057 14.2663 19.4322 13.65 18 13.65Z" fill="#0D0D0D"/>
</svg>
