<svg width="18" height="19" viewBox="0 0 18 19" fill="none" xmlns="http://www.w3.org/2000/svg">
<path d="M5.22 0H12.78C15.66 0 18 2.47 18 5.51V13.49C18 14.9513 17.45 16.3528 16.4711 17.3862C15.4922 18.4195 14.1644 19 12.78 19H5.22C2.34 19 0 16.53 0 13.49V5.51C0 4.04866 0.549963 2.64717 1.5289 1.61384C2.50784 0.580516 3.83557 0 5.22 0ZM5.04 1.9C4.1807 1.9 3.35659 2.26032 2.74897 2.90169C2.14136 3.54307 1.8 4.41296 1.8 5.32V13.68C1.8 15.5705 3.249 17.1 5.04 17.1H12.96C13.8193 17.1 14.6434 16.7397 15.251 16.0983C15.8586 15.4569 16.2 14.587 16.2 13.68V5.32C16.2 3.4295 14.751 1.9 12.96 1.9H5.04ZM13.725 3.325C14.0234 3.325 14.3095 3.45011 14.5205 3.67281C14.7315 3.89551 14.85 4.19756 14.85 4.5125C14.85 4.82744 14.7315 5.12949 14.5205 5.35219C14.3095 5.57489 14.0234 5.7 13.725 5.7C13.4266 5.7 13.1405 5.57489 12.9295 5.35219C12.7185 5.12949 12.6 4.82744 12.6 4.5125C12.6 4.19756 12.7185 3.89551 12.9295 3.67281C13.1405 3.45011 13.4266 3.325 13.725 3.325ZM9 4.75C10.1935 4.75 11.3381 5.25044 12.182 6.14124C13.0259 7.03204 13.5 8.24022 13.5 9.5C13.5 10.7598 13.0259 11.968 12.182 12.8588C11.3381 13.7496 10.1935 14.25 9 14.25C7.80653 14.25 6.66193 13.7496 5.81802 12.8588C4.97411 11.968 4.5 10.7598 4.5 9.5C4.5 8.24022 4.97411 7.03204 5.81802 6.14124C6.66193 5.25044 7.80653 4.75 9 4.75ZM9 6.65C8.28392 6.65 7.59716 6.95027 7.09081 7.48475C6.58446 8.01922 6.3 8.74413 6.3 9.5C6.3 10.2559 6.58446 10.9808 7.09081 11.5153C7.59716 12.0497 8.28392 12.35 9 12.35C9.71608 12.35 10.4028 12.0497 10.9092 11.5153C11.4155 10.9808 11.7 10.2559 11.7 9.5C11.7 8.74413 11.4155 8.01922 10.9092 7.48475C10.4028 6.95027 9.71608 6.65 9 6.65Z" fill="#EDB159"/>
</svg>
